<?xml version="1.0" encoding="iso-8859-1"?>
<!-- Uploaded to: SVG Repo, www.svgrepo.com, Generator: SVG Repo Mixer Tools -->
<svg fill="#000000" height="800px" width="800px" version="1.1" id="Layer_1" xmlns="http://www.w3.org/2000/svg" xmlns:xlink="http://www.w3.org/1999/xlink" 
	 viewBox="0 0 512 512" xml:space="preserve">
<g>
	<g>
		<path d="M401.067,290.061c-23.526,0-42.667,19.14-42.667,42.667c0,23.526,19.14,42.667,42.667,42.667
			c23.526,0,42.667-19.14,42.667-42.667C443.733,309.202,424.593,290.061,401.067,290.061z M401.067,358.328
			c-14.114,0-25.6-11.486-25.6-25.6s11.486-25.6,25.6-25.6c14.114,0,25.6,11.486,25.6,25.6S415.181,358.328,401.067,358.328z"/>
	</g>
</g>
<g>
	<g>
		<path d="M119.467,290.061c-23.526,0-42.667,19.14-42.667,42.667c0,23.526,19.14,42.667,42.667,42.667s42.667-19.14,42.667-42.667
			C162.133,309.202,142.993,290.061,119.467,290.061z M119.467,358.328c-14.114,0-25.6-11.486-25.6-25.6s11.486-25.6,25.6-25.6
			s25.6,11.486,25.6,25.6S133.581,358.328,119.467,358.328z"/>
	</g>
</g>
<g>
	<g>
		<path d="M509.5,284.028l-6.033-6.033v-56.201c0-4.71-3.823-8.533-8.533-8.533H349.867v-68.079c0-4.685-3.78-8.499-8.474-8.533
			c-145.698-1.092-175.863,18.142-226.722,77.628c-58.769,5.188-102.844,30.976-105.958,63.539L2.5,284.028
			C0.896,285.624,0,287.8,0,290.061v17.067c0,2.261,0.896,4.437,2.5,6.033l6.033,6.033v13.534c0,4.71,3.823,8.533,8.533,8.533H51.2
			c4.71,0,8.533-3.823,8.533-8.533c0-32.939,26.795-59.733,59.733-59.733s59.733,26.795,59.733,59.733
			c0,4.71,3.823,8.533,8.533,8.533H332.8c4.71,0,8.533-3.823,8.533-8.533c0-32.939,26.795-59.733,59.733-59.733
			c32.939,0,59.733,26.795,59.733,59.733c0,4.71,3.823,8.533,8.533,8.533h25.6c2.261,0,4.437-0.896,6.033-2.5l8.533-8.533
			c1.604-1.604,2.5-3.772,2.5-6.033v-34.133C512,287.8,511.104,285.624,509.5,284.028z M264.533,155.9
			c19.115-1.57,41.626-2.244,68.267-2.227v59.58h-68.267V155.9z M247.467,157.641v55.62H138.197
			C166.409,181.867,190.268,164.724,247.467,157.641z M494.933,320.662l-3.533,3.533h-14.003
			c-4.258-38.349-36.864-68.267-76.331-68.267s-72.073,29.918-76.331,68.267H195.797c-4.258-38.349-36.864-68.267-76.331-68.267
			s-72.073,29.918-76.331,68.267H25.6v-8.533c0-2.261-0.896-4.437-2.5-6.033l-6.033-6.033v-10.001l6.033-6.033
			c1.604-1.604,2.5-3.772,2.5-6.033c0-2.731,0.631-5.478,1.69-8.209l15.556-0.324c4.71-0.102,8.448-4.002,8.354-8.713
			c-0.102-4.71-4.122-8.294-8.713-8.354l-1.135,0.026c18.526-14.524,52.241-25.626,95.172-25.626h349.867v17.067h-8.533
			c-4.71,0-8.533,3.823-8.533,8.533c0,4.71,3.823,8.533,8.533,8.533h8.533v17.067c0,2.261,0.896,4.437,2.5,6.033l6.042,6.033
			V320.662z"/>
	</g>
</g>
</svg>